<svg width="70" height="70" viewBox="0 0 70 70" fill="none" xmlns="http://www.w3.org/2000/svg">
<g clip-path="url(#clip0)">
<path d="M44.4847 56.786C55.0981 56.786 63.7326 48.1515 63.7326 37.5381C63.7326 26.9248 55.0981 18.2901 44.4847 18.2901C33.8714 18.2901 25.2367 26.9246 25.2367 37.5381C25.2367 48.1516 33.8714 56.786 44.4847 56.786ZM30.1534 36.5068H27.3307C27.5665 32.5435 29.1513 28.9378 31.6316 26.1432L33.6218 28.1334C33.8231 28.3348 34.0871 28.4354 34.3509 28.4354C34.6148 28.4354 34.8787 28.3348 35.08 28.1334C35.4827 27.7307 35.4827 27.0778 35.08 26.6752L33.0898 24.685C35.8844 22.2047 39.4901 20.6199 43.4535 20.3841V23.2068C43.4535 23.7762 43.915 24.2379 44.4846 24.2379C45.0542 24.2379 45.5157 23.7762 45.5157 23.2068V20.3841C49.4791 20.6199 53.0848 22.2047 55.8793 24.685L53.8891 26.6752C53.4864 27.0779 53.4864 27.7308 53.8891 28.1334C54.0905 28.3347 54.3544 28.4354 54.6183 28.4354C54.8821 28.4354 55.1461 28.3348 55.3475 28.1334L57.3376 26.1432C59.8178 28.9378 61.4027 32.5433 61.6383 36.5067H58.8157C58.2461 36.5067 57.7845 36.9684 57.7845 37.5378C57.7845 38.1073 58.2461 38.569 58.8157 38.569H61.6383C61.4026 42.5324 59.8178 46.138 57.3374 48.9325L55.3473 46.9424C54.9445 46.5397 54.2917 46.5397 53.8891 46.9424C53.4864 47.3451 53.4864 47.998 53.8891 48.4006L55.8793 50.3908C53.0846 52.8712 49.4791 54.4559 45.5157 54.6917V51.869C45.5157 51.2996 45.0542 50.8379 44.4846 50.8379C43.915 50.8379 43.4535 51.2996 43.4535 51.869V54.6917C39.4899 54.4559 35.8844 52.8712 33.0898 50.3908L35.08 48.4007C35.4827 47.998 35.4827 47.3451 35.08 46.9426C34.6772 46.5397 34.0244 46.5399 33.6218 46.9426L31.6316 48.9327C29.1513 46.138 27.5665 42.5325 27.3307 38.569H30.1534C30.7229 38.569 31.1845 38.1073 31.1845 37.5378C31.1845 36.9685 30.7229 36.5068 30.1534 36.5068Z" fill="#0572CB"/>
<path d="M56.9875 57.3842C53.2501 59.7438 48.9268 60.991 44.4848 60.991C31.5528 60.991 21.0318 50.47 21.0318 37.538C21.0318 32.3024 22.7187 27.3505 25.91 23.2175C26.258 22.7668 26.1748 22.1193 25.724 21.7712C25.2733 21.4232 24.6258 21.5064 24.2777 21.9572C20.805 26.4544 18.9695 31.8421 18.9695 37.538C18.9695 51.6071 30.4156 63.0532 44.4848 63.0532C49.3171 63.0532 54.0212 61.6958 58.0884 59.1279C58.57 58.8239 58.7138 58.1871 58.4099 57.7055C58.1057 57.224 57.4691 57.0804 56.9875 57.3842Z" fill="#0572CB"/>
<path d="M50.7034 12.7906V8.88188C50.7034 7.81473 49.8352 6.94666 48.7682 6.94666H40.201C39.1339 6.94666 38.2658 7.81473 38.2658 8.88188V12.7895C34.1653 13.8167 30.361 15.8548 27.1946 18.7739C26.776 19.1599 26.7494 19.8121 27.1354 20.2309C27.5214 20.6496 28.1738 20.6762 28.5924 20.2902C32.9329 16.2887 38.5769 14.085 44.4846 14.085C57.4166 14.085 67.9376 24.6059 67.9376 37.538C67.9376 44.1758 65.1058 50.5317 60.1684 54.9755C59.7452 55.3564 59.7108 56.0084 60.0918 56.4317C60.2953 56.658 60.5763 56.7729 60.8584 56.7729C61.1042 56.7729 61.3509 56.6856 61.548 56.5083C66.9193 51.6739 69.9999 44.7594 69.9999 37.5378C70 25.6133 61.7767 15.5743 50.7034 12.7906ZM40.3282 12.3611V9.00892H48.6413V12.3631C47.2882 12.1404 45.9 12.0227 44.4849 12.0227C43.0816 12.0227 41.6922 12.1371 40.3282 12.3611Z" fill="#0572CB"/>
<path d="M44.4848 38.2602C44.8716 38.2602 45.2082 38.0469 45.3846 37.7318L48.9416 34.1748C49.3443 33.7721 49.3443 33.1192 48.9416 32.7165C48.5389 32.3138 47.8861 32.3138 47.4831 32.7165L45.5158 34.6838V29.6623C45.5158 29.0929 45.0542 28.6312 44.4846 28.6312C43.915 28.6312 43.4535 29.0929 43.4535 29.6623V37.2288C43.4536 37.7985 43.9152 38.2602 44.4848 38.2602Z" fill="#0572CB"/>
<path d="M15.216 37.7707C15.216 37.2012 14.7544 36.7395 14.1849 36.7395H1.03113C0.461671 36.7395 0 37.2012 0 37.7707C0 38.3401 0.461671 38.8018 1.03113 38.8018H14.1849C14.7544 38.8018 15.216 38.3403 15.216 37.7707Z" fill="#0572CB"/>
<path d="M5.14386 32.7969H15.5599C16.1294 32.7969 16.5911 32.3352 16.5911 31.7657C16.5911 31.1963 16.1294 30.7346 15.5599 30.7346H5.14386C4.5744 30.7346 4.11273 31.1963 4.11273 31.7657C4.11273 32.3352 4.57427 32.7969 5.14386 32.7969Z" fill="#0572CB"/>
<path d="M16.9346 24.7294H8.39234C7.82288 24.7294 7.36121 25.1911 7.36121 25.7606C7.36121 26.33 7.82288 26.7917 8.39234 26.7917H16.9346C17.5041 26.7917 17.9658 26.33 17.9658 25.7606C17.9658 25.191 17.5041 24.7294 16.9346 24.7294Z" fill="#0572CB"/>
<path d="M16.5909 43.3103C16.5909 42.7408 16.1292 42.2792 15.5598 42.2792H5.14386C4.5744 42.2792 4.11273 42.7408 4.11273 43.3103C4.11273 43.8798 4.5744 44.3414 5.14386 44.3414H15.5599C16.1292 44.3414 16.5909 43.8798 16.5909 43.3103Z" fill="#0572CB"/>
<path d="M16.9346 48.2844H8.39234C7.82288 48.2844 7.36121 48.7461 7.36121 49.3155C7.36121 49.885 7.82288 50.3467 8.39234 50.3467H16.9346C17.5041 50.3467 17.9658 49.885 17.9658 49.3155C17.9658 48.7461 17.5041 48.2844 16.9346 48.2844Z" fill="#0572CB"/>
</g>
<defs>
<clipPath id="clip0">
<rect width="70" height="70" fill="white"/>
</clipPath>
</defs>
</svg>
