<svg width="70" height="70" viewBox="0 0 70 70" fill="none" xmlns="http://www.w3.org/2000/svg">
<path d="M55.3711 42.5879C55.9374 42.5879 56.3965 42.1289 56.3965 41.5625V40.4687C56.3965 38.1511 55.4936 35.971 53.8537 34.3294C53.1342 33.6107 52.3111 33.0336 51.4183 32.6119C52.9446 31.4773 53.9355 29.6609 53.9355 27.6172C53.9355 24.187 51.145 21.3965 47.7148 21.3965C45.5429 21.3965 43.6286 22.5161 42.5156 24.2077C42.5167 24.1553 42.5195 24.1034 42.5195 24.0506C42.5195 19.9043 39.1463 16.5311 35 16.5311C30.8537 16.5311 27.4805 19.9043 27.4805 24.0506C27.4805 24.1032 27.4833 24.1552 27.4844 24.2077C26.3714 22.5161 24.4571 21.3965 22.2852 21.3965C18.855 21.3965 16.0645 24.187 16.0645 27.6172C16.0645 29.6624 17.0568 31.4798 18.585 32.6143C18.2938 32.7515 18.0093 32.9045 17.7337 33.0744C17.2517 33.3718 17.1019 34.0034 17.3991 34.4854C17.6963 34.9673 18.328 35.1173 18.8102 34.8199C19.852 34.1775 21.0536 33.8377 22.2852 33.8377C23.332 33.8377 24.344 34.0792 25.2615 34.5418C23.8618 36.5003 23.0371 38.8967 23.0371 41.4821V47.0996H15.6543V40.4687C15.6543 39.4596 15.8747 38.4912 16.3095 37.5904C16.5555 37.0804 16.3417 36.4674 15.8318 36.2213C15.3217 35.9748 14.7087 36.189 14.4625 36.699C13.8925 37.8801 13.6035 39.1485 13.6035 40.4687V48.125C13.6035 48.6914 14.0626 49.1504 14.6289 49.1504H23.0371V52.4197C23.0371 52.9862 23.4962 53.4451 24.0625 53.4451H26.25C26.8163 53.4451 27.2754 52.9862 27.2754 52.4197C27.2754 51.8533 26.8163 51.3943 26.25 51.3943H25.0879V41.4822C25.0879 36.0166 29.5344 31.5701 35 31.5701C40.4656 31.5701 44.9121 36.0166 44.9121 41.4822V51.3943H30.6478C30.0815 51.3943 29.6224 51.8533 29.6224 52.4197C29.6224 52.9862 30.0815 53.4451 30.6478 53.4451H45.9375C46.5038 53.4451 46.9629 52.9862 46.9629 52.4197V49.1504H55.3711C55.9374 49.1504 56.3965 48.6914 56.3965 48.125V45.9375C56.3965 45.3711 55.9374 44.9121 55.3711 44.9121C54.8048 44.9121 54.3457 45.3711 54.3457 45.9375V47.0996H46.9629V41.4822C46.9629 38.8968 46.1382 36.5005 44.7385 34.542C45.656 34.0793 46.668 33.8379 47.7148 33.8379C49.4852 33.8379 51.1506 34.5276 52.4035 35.7794C53.656 37.0331 54.3457 38.6985 54.3457 40.4687V41.5625C54.3457 42.1289 54.8048 42.5879 55.3711 42.5879ZM22.2852 31.7871C19.9858 31.7871 18.1152 29.9164 18.1152 27.6172C18.1152 25.318 19.9858 23.4473 22.2852 23.4473C24.5845 23.4473 26.4551 25.318 26.4551 27.6172C26.4551 29.9164 24.5845 31.7871 22.2852 31.7871ZM26.6243 32.9495C26.4156 32.8285 26.2027 32.7164 25.9857 32.6138C27.4615 31.518 28.4357 29.7849 28.5005 27.8251C29.0726 28.8062 29.8584 29.6479 30.7963 30.2825C29.2216 30.8756 27.8039 31.7915 26.6243 32.9495ZM35 29.5193C31.9845 29.5193 29.5312 27.0661 29.5312 24.0506C29.5312 21.0351 31.9845 18.5818 35 18.5818C38.0155 18.5818 40.4688 21.0351 40.4688 24.0506C40.4688 27.0661 38.0155 29.5193 35 29.5193ZM43.3757 32.9495C42.1961 31.7915 40.7784 30.8756 39.2037 30.2825C40.1416 29.6479 40.9274 28.8062 41.4995 27.8251C41.5643 29.7849 42.5384 31.518 44.0143 32.6138C43.7974 32.7164 43.5846 32.8285 43.3757 32.9495ZM47.7148 31.7871C45.4155 31.7871 43.5449 29.9164 43.5449 27.6172C43.5449 25.318 45.4155 23.4473 47.7148 23.4473C50.0142 23.4473 51.8848 25.318 51.8848 27.6172C51.8848 29.9164 50.0142 31.7871 47.7148 31.7871Z" fill="#0572CB"/>
<path d="M10.7324 5.53711H5.12695C2.29988 5.53711 0 7.83699 0 10.6641V16.2695C0 17.9657 1.3799 19.3457 3.07617 19.3457C4.77244 19.3457 6.15234 17.9657 6.15234 16.2695V11.6895H10.7324C12.4287 11.6895 13.8086 10.3094 13.8086 8.61328C13.8086 6.91715 12.4287 5.53711 10.7324 5.53711ZM10.7324 9.63867H5.12695C4.56066 9.63867 4.10156 10.0976 4.10156 10.6641V16.2695C4.10156 16.835 3.64164 17.2949 3.07617 17.2949C2.5107 17.2949 2.05078 16.835 2.05078 16.2695V10.6641C2.05078 8.96793 3.43068 7.58789 5.12695 7.58789H10.7324C11.2979 7.58789 11.7578 8.04781 11.7578 8.61328C11.7578 9.17875 11.2979 9.63867 10.7324 9.63867Z" fill="#0572CB"/>
<path d="M64.873 5.53711H59.2676C57.5713 5.53711 56.1914 6.91715 56.1914 8.61328C56.1914 10.3094 57.5713 11.6895 59.2676 11.6895H63.8477V16.2695C63.8477 17.9657 65.2276 19.3457 66.9238 19.3457C68.6201 19.3457 70 17.9657 70 16.2695V10.6641C70 7.83699 67.7001 5.53711 64.873 5.53711ZM67.9492 16.2695C67.9492 16.835 67.4893 17.2949 66.9238 17.2949C66.3584 17.2949 65.8984 16.835 65.8984 16.2695V10.6641C65.8984 10.0976 65.4393 9.63867 64.873 9.63867H59.2676C58.7021 9.63867 58.2422 9.17875 58.2422 8.61328C58.2422 8.04781 58.7021 7.58789 59.2676 7.58789H64.873C66.5693 7.58789 67.9492 8.96793 67.9492 10.6641V16.2695Z" fill="#0572CB"/>
<path d="M66.9238 50.6543C65.2276 50.6543 63.8477 52.0343 63.8477 53.7305V58.3105H59.2676C57.5713 58.3105 56.1914 59.6906 56.1914 61.3867C56.1914 63.0829 57.5713 64.4629 59.2676 64.4629H64.873C67.7001 64.4629 70 62.163 70 59.3359V53.7305C70 52.0343 68.6201 50.6543 66.9238 50.6543ZM67.9492 59.3359C67.9492 61.0321 66.5693 62.4121 64.873 62.4121H59.2676C58.7021 62.4121 58.2422 61.9522 58.2422 61.3867C58.2422 60.8212 58.7021 60.3613 59.2676 60.3613H64.873C65.4393 60.3613 65.8984 59.9024 65.8984 59.3359V53.7305C65.8984 53.165 66.3584 52.7051 66.9238 52.7051C67.4893 52.7051 67.9492 53.165 67.9492 53.7305V59.3359Z" fill="#0572CB"/>
<path d="M10.7324 58.3105H6.15234V53.7305C6.15234 52.0343 4.77244 50.6543 3.07617 50.6543C1.3799 50.6543 0 52.0343 0 53.7305V59.3359C0 62.163 2.29988 64.4629 5.12695 64.4629H10.7324C12.4287 64.4629 13.8086 63.0829 13.8086 61.3867C13.8086 59.6906 12.4287 58.3105 10.7324 58.3105ZM10.7324 62.4121H5.12695C3.43068 62.4121 2.05078 61.0321 2.05078 59.3359V53.7305C2.05078 53.165 2.5107 52.7051 3.07617 52.7051C3.64164 52.7051 4.10156 53.165 4.10156 53.7305V59.3359C4.10156 59.9024 4.56066 60.3613 5.12695 60.3613H10.7324C11.2979 60.3613 11.7578 60.8212 11.7578 61.3867C11.7578 61.9522 11.2979 62.4121 10.7324 62.4121Z" fill="#0572CB"/>
<path d="M35 0C33.3037 0 31.9238 1.38004 31.9238 3.07617V8.54492C31.9238 10.2411 33.3037 11.6211 35 11.6211C36.6963 11.6211 38.0762 10.2411 38.0762 8.54492V3.07617C38.0762 1.38004 36.6963 0 35 0ZM36.0254 8.54492C36.0254 9.11039 35.5655 9.57031 35 9.57031C34.4345 9.57031 33.9746 9.11039 33.9746 8.54492V3.07617C33.9746 2.5107 34.4345 2.05078 35 2.05078C35.5655 2.05078 36.0254 2.5107 36.0254 3.07617V8.54492Z" fill="#0572CB"/>
<path d="M35 58.3789C33.3037 58.3789 31.9238 59.7589 31.9238 61.4551V66.9238C31.9238 68.62 33.3037 70 35 70C36.6963 70 38.0762 68.62 38.0762 66.9238V61.4551C38.0762 59.7589 36.6963 58.3789 35 58.3789ZM36.0254 66.9238C36.0254 67.4893 35.5655 67.9492 35 67.9492C34.4345 67.9492 33.9746 67.4893 33.9746 66.9238V61.4551C33.9746 60.8896 34.4345 60.4297 35 60.4297C35.5655 60.4297 36.0254 60.8896 36.0254 61.4551V66.9238Z" fill="#0572CB"/>
<path d="M66.9238 31.9238H61.4551C59.7588 31.9238 58.3789 33.3039 58.3789 35C58.3789 36.6961 59.7588 38.0762 61.4551 38.0762H66.9238C68.6201 38.0762 70 36.6961 70 35C70 33.3039 68.6201 31.9238 66.9238 31.9238ZM66.9238 36.0254H61.4551C60.8896 36.0254 60.4297 35.5655 60.4297 35C60.4297 34.4345 60.8896 33.9746 61.4551 33.9746H66.9238C67.4893 33.9746 67.9492 34.4345 67.9492 35C67.9492 35.5655 67.4893 36.0254 66.9238 36.0254Z" fill="#0572CB"/>
<path d="M8.54492 31.9238H3.07617C1.3799 31.9238 0 33.3039 0 35C0 36.6961 1.3799 38.0762 3.07617 38.0762H8.54492C10.2412 38.0762 11.6211 36.6961 11.6211 35C11.6211 33.3039 10.2412 31.9238 8.54492 31.9238ZM8.54492 36.0254H3.07617C2.5107 36.0254 2.05078 35.5655 2.05078 35C2.05078 34.4345 2.5107 33.9746 3.07617 33.9746H8.54492C9.11039 33.9746 9.57031 34.4345 9.57031 35C9.57031 35.5655 9.11039 36.0254 8.54492 36.0254Z" fill="#0572CB"/>
<path d="M40.7459 38.1445C40.2807 37.8217 39.6419 37.9371 39.3188 38.4021L34.8913 44.7801L30.9035 40.8171C30.5018 40.4179 29.8525 40.4199 29.4535 40.8214C29.0542 41.2231 29.0563 41.8724 29.458 42.2715L34.3134 47.0968C34.5062 47.2887 34.7665 47.3949 35.0359 47.3949C35.0668 47.3949 35.098 47.3935 35.1291 47.3907C35.4311 47.3632 35.7055 47.2033 35.8784 46.9544L41.0034 39.5716C41.3264 39.1063 41.2111 38.4674 40.7459 38.1445Z" fill="#0572CB"/>
</svg>
