<svg width="70" height="70" viewBox="0 0 70 70" fill="none" xmlns="http://www.w3.org/2000/svg">
<path d="M61.9012 4.68127H54.6839C54.1097 4.68127 53.6443 5.1468 53.6443 5.72088C53.6443 6.29497 54.1097 6.76049 54.6839 6.76049H61.9012C65.2205 6.76049 67.9209 9.46028 67.9209 12.7787V45.4507C67.9209 48.7691 65.2206 51.4689 61.9012 51.4689H8.09744C4.779 51.4689 2.07922 48.7691 2.07922 45.4507V12.7787C2.07922 9.46028 4.779 6.76049 8.09744 6.76049H51.2183C51.7925 6.76049 52.2579 6.29497 52.2579 5.72088C52.2579 5.1468 51.7925 4.68127 51.2183 4.68127H8.09744C3.63248 4.68127 0 8.31375 0 12.7787V45.4507C0 49.9155 3.63248 53.5481 8.09744 53.5481H24.6032V57.7697C21.2034 57.9901 18.5043 60.8246 18.5043 64.2792C18.5043 64.8532 18.9699 65.3188 19.5439 65.3188H50.4562C51.0304 65.3188 51.4958 64.8532 51.4958 64.2792C51.4958 60.8247 48.7968 57.99 45.3969 57.7697V53.5481H61.9011C66.3668 53.5481 70 49.9156 70 45.4507V12.7787C70 8.31375 66.367 4.68127 61.9012 4.68127ZM26.6823 53.5481H43.3178V57.7544H43.3177H26.6823V53.5481ZM49.2938 63.2396H20.7062C21.1755 61.288 22.9357 59.8333 25.0292 59.8333H44.9709C47.0643 59.8335 48.8245 61.288 49.2938 63.2396Z" fill="#0572CB"/>
<path d="M52.9173 27.4051L59.549 34.0367C59.9552 34.4427 60.6132 34.4426 61.0193 34.0367C61.4253 33.6306 61.4253 32.9725 61.0193 32.5665L54.8154 26.3628C55.6142 23.0597 54.6508 19.5836 52.2262 17.1593C50.5569 15.49 48.3419 14.4819 45.989 14.3209C43.6609 14.1616 41.3509 14.8385 39.4878 16.227C39.1984 16.4427 39.0415 16.793 39.0736 17.1526C39.1057 17.5122 39.3217 17.8293 39.6445 17.9907L44.2718 20.3019C44.9355 20.6334 45.4303 21.2036 45.6653 21.9074C45.9001 22.6111 45.847 23.3643 45.5154 24.0279C45.1838 24.6915 44.6138 25.1865 43.9101 25.4213C43.2063 25.6564 42.453 25.603 41.7895 25.2715L37.0555 22.9068C36.7376 22.7481 36.3607 22.7626 36.0558 22.9455C35.7512 23.1283 35.5611 23.4542 35.5517 23.8094C35.4805 26.5167 36.4955 29.0617 38.4095 30.9761C40.8787 33.4452 44.4081 34.395 47.7555 33.5303L59.1037 44.8785C59.3067 45.0814 59.5729 45.1829 59.839 45.1829C60.105 45.1829 60.3711 45.0815 60.5743 44.8785C60.9803 44.4724 60.9803 43.8143 60.5743 43.4083L48.7903 31.6245C48.5126 31.3471 48.1026 31.2495 47.7302 31.3722C44.9533 32.2863 41.9452 31.5712 39.8802 29.5059C38.7891 28.4147 38.0691 27.0629 37.7761 25.5909L40.8608 27.1317C42.0212 27.7114 43.3378 27.8045 44.5689 27.3938C45.7993 26.9831 46.7963 26.1176 47.3761 24.957C47.9558 23.7964 48.0488 22.4796 47.6381 21.2491C47.2274 20.0185 46.3619 19.0215 45.2015 18.4418L42.3021 16.9936C45.126 15.798 48.5122 16.3852 50.7566 18.6296C52.7843 20.6572 53.514 23.6198 52.6603 26.3611C52.5452 26.7297 52.6442 27.1318 52.9173 27.4051Z" fill="#0572CB"/>
<path d="M43.6655 43.4054L38.2614 38.0013C37.423 37.163 36.3087 36.7013 35.1232 36.7013C34.4385 36.7015 33.7779 36.8563 33.1803 37.1479L23.6124 27.5802L23.0875 22.883C23.0506 22.5529 22.8581 22.2603 22.5697 22.0955L14.3854 17.4247C13.9783 17.1923 13.4662 17.2612 13.135 17.5924L9.62144 21.106C9.29003 21.4372 9.2214 21.9493 9.45368 22.3564L14.1244 30.5407C14.289 30.8293 14.5817 31.0216 14.9119 31.0586L19.7958 31.6043L29.263 41.0714C28.8669 41.8876 28.7219 42.8175 28.8722 43.7335C28.9652 44.3002 29.5007 44.6829 30.0666 44.5908C30.6332 44.4977 31.017 43.9629 30.924 43.3965C30.8008 42.647 31.0473 41.8793 31.5834 41.3432L33.4551 39.4715C33.9006 39.026 34.493 38.7807 35.1232 38.7807C35.7532 38.7807 36.3454 39.026 36.791 39.4715L42.1951 44.8756C42.3981 45.0785 42.6643 45.1801 42.9303 45.1801C43.1964 45.1801 43.4625 45.0787 43.6656 44.8756C44.0714 44.4694 44.0714 43.8111 43.6655 43.4054ZM19.7047 29.5021L15.668 29.0511L11.6525 22.015L14.0437 19.6238L21.0797 23.6394L21.5307 27.6761L19.7047 29.5021ZM30.5588 39.4272L21.6394 30.5079L22.6196 29.5277L31.5389 38.4471L30.5588 39.4272Z" fill="#0572CB"/>
<path d="M61.9012 10.0051H8.09691C6.56826 10.0051 5.32466 11.2499 5.32466 12.7801V45.4486C5.32466 46.9788 6.56826 48.2236 8.09691 48.2236H10.157C10.7311 48.2236 11.1966 47.7581 11.1966 47.184C11.1966 46.6099 10.7311 46.1444 10.157 46.1444H8.09691C7.71478 46.1444 7.40388 45.8322 7.40388 45.4485V12.7801C7.40388 12.3964 7.71478 12.0842 8.09691 12.0842H61.9015C62.2851 12.0842 62.5974 12.3963 62.5974 12.7801V45.4486C62.5974 45.7104 62.4508 45.9483 62.2146 46.0697C62.1182 46.1194 62.0129 46.1444 61.9016 46.1444H13.6225C13.0485 46.1444 12.5829 46.6099 12.5829 47.184C12.5829 47.7581 13.0485 48.2237 13.6225 48.2237H61.9013C62.3406 48.2237 62.7777 48.1183 63.1649 47.919C64.0972 47.4401 64.6762 46.4936 64.6762 45.4487V12.7801C64.6763 11.2499 63.4315 10.0051 61.9012 10.0051Z" fill="#0572CB"/>
</svg>
