<svg width="20" height="20" viewBox="0 0 20 20" fill="none" xmlns="http://www.w3.org/2000/svg">
<path d="M17.0703 0H2.92969C1.31439 0 0 1.31439 0 2.92969V17.0703C0 18.6856 1.31439 20 2.92969 20H17.0703C18.6856 20 20 18.6856 20 17.0703V2.92969C20 1.31439 18.6856 0 17.0703 0ZM10.0391 15.2344C7.1312 15.2344 4.76562 12.8688 4.76562 9.96094C4.76562 7.05307 7.1312 4.6875 10.0391 4.6875C12.9469 4.6875 15.3125 7.05307 15.3125 9.96094C15.3125 12.8688 12.9469 15.2344 10.0391 15.2344ZM15.8984 5.85938C14.9292 5.85938 14.1406 5.0708 14.1406 4.10156C14.1406 3.13232 14.9292 2.34375 15.8984 2.34375C16.8677 2.34375 17.6562 3.13232 17.6562 4.10156C17.6562 5.0708 16.8677 5.85938 15.8984 5.85938Z" fill="#FFC700"/>
</svg>
